<?xml version="1.0" standalone="no"?>
<!DOCTYPE svg PUBLIC "-//W3C//DTD SVG 20010904//EN"
 "http://www.w3.org/TR/2001/REC-SVG-20010904/DTD/svg10.dtd">
<svg version="1.0" xmlns="http://www.w3.org/2000/svg"
 width="700.000000pt" height="700.000000pt" viewBox="0 0 700.000000 700.000000"
 preserveAspectRatio="xMidYMid meet">
<metadata>
Created by potrace 1.14, written by Peter Selinger 2001-2017
</metadata>
<g transform="translate(0.000000,700.000000) scale(0.100000,-0.100000)"
fill="#000000" stroke="none">
<path d="M1865 6900 c-476 -196 -834 -529 -1012 -940 -23 -52 -49 -120 -58
-150 -9 -30 -20 -69 -25 -86 -16 -49 -50 -312 -50 -378 0 -72 35 -348 49 -391
6 -16 20 -61 32 -100 27 -89 40 -119 96 -230 42 -84 65 -121 153 -250 53 -77
283 -302 400 -391 215 -164 443 -294 722 -415 79 -33 152 -65 163 -70 55 -24
293 -108 480 -170 116 -38 218 -74 227 -79 10 -6 22 -10 28 -10 5 0 62 -21
127 -46 223 -87 408 -178 533 -263 30 -20 78 -52 105 -71 75 -51 236 -216 287
-295 91 -141 122 -246 122 -410 -1 -120 -14 -192 -59 -315 -37 -102 -165 -312
-245 -403 -45 -51 -47 -57 -21 -57 22 0 79 24 221 93 457 220 805 602 934
1022 52 170 67 273 69 465 5 519 -220 967 -668 1327 -75 60 -266 195 -310 219
-11 6 -58 32 -105 59 -138 79 -275 145 -445 215 -55 22 -115 47 -133 55 -18 8
-38 15 -45 15 -7 1 -30 9 -52 20 -22 11 -46 19 -53 20 -7 0 -20 4 -30 10 -9 5
-127 46 -262 90 -135 45 -254 85 -265 89 -11 5 -58 23 -105 41 -87 33 -163 70
-168 82 -2 4 -10 4 -19 1 -10 -4 -14 -2 -10 4 3 5 -10 25 -29 44 -124 119 -87
246 88 300 85 27 250 34 430 20 81 -7 157 -14 170 -17 13 -3 49 -10 81 -15 77
-12 233 -44 332 -70 44 -11 98 -24 120 -30 63 -15 178 -50 200 -59 20 -10 77
-30 150 -54 58 -20 178 -72 219 -97 20 -12 42 -19 49 -16 8 3 36 40 62 84 27
43 73 116 103 163 30 47 64 101 76 120 38 60 91 143 128 200 19 30 57 89 83
130 26 41 69 107 94 147 25 40 71 111 101 159 30 48 90 141 132 207 42 66 74
125 72 132 -3 7 -13 15 -22 18 -37 11 -139 49 -167 62 -37 17 -280 98 -355
118 -30 9 -89 25 -130 37 -41 12 -97 26 -125 31 -27 6 -59 12 -70 15 -11 2
-54 10 -95 17 -41 8 -82 16 -90 20 -8 3 -103 13 -210 23 -417 36 -811 -8
-1075 -121 -16 -7 -59 -26 -95 -41 -158 -68 -319 -189 -432 -324 -79 -95 -146
-210 -164 -285 -4 -17 -10 -35 -15 -40 -4 -6 -12 -53 -18 -105 -21 -191 17
-350 120 -505 50 -75 158 -184 227 -230 23 -15 41 -29 39 -31 -6 -6 -138 62
-246 125 -298 176 -478 372 -556 605 -23 69 -35 209 -24 297 8 71 30 159 63
246 37 99 159 298 235 383 67 74 55 80 -64 30z"/>
<path d="M2440 1490 c-17 -17 -20 -33 -20 -110 0 -122 8 -130 128 -130 127 0
132 5 132 130 0 125 -5 130 -132 130 -75 0 -91 -3 -108 -20z"/>
<path d="M390 1091 c-8 -5 -32 -11 -53 -15 -49 -9 -97 -38 -125 -75 -74 -100
-68 -291 12 -387 33 -40 142 -96 211 -109 22 -3 63 -13 90 -21 117 -34 152
-44 194 -55 55 -13 91 -48 91 -89 0 -81 -87 -102 -398 -95 -162 3 -214 2 -217
-8 -2 -7 -5 -44 -8 -84 l-4 -72 31 -11 c56 -19 382 -33 519 -22 69 6 134 15
144 21 10 5 33 15 51 22 52 19 97 80 116 157 20 83 20 105 0 183 -34 131 -74
158 -366 239 -40 11 -86 25 -103 30 -16 5 -50 14 -74 20 -76 20 -91 35 -91 91
0 82 3 83 321 80 l269 -1 4 22 c3 13 7 52 8 88 l3 65 -110 17 c-118 18 -488
24 -515 9z"/>
<path d="M1465 1084 c-49 -7 -112 -17 -140 -21 l-50 -8 3 -65 c4 -121 1 -119
126 -108 45 3 152 7 239 7 181 1 215 -8 241 -64 9 -18 16 -56 16 -83 l0 -50
-247 -4 c-237 -3 -250 -4 -296 -27 -108 -53 -144 -138 -134 -314 9 -157 54
-229 176 -282 68 -30 225 -27 311 4 77 29 124 57 173 104 21 19 40 31 43 26 3
-5 8 -34 11 -64 3 -30 11 -60 18 -65 8 -6 50 -10 102 -8 l88 3 3 390 c2 336 0
396 -14 440 -34 106 -87 157 -196 189 -70 20 -337 20 -473 0z m435 -643 c0
-65 -2 -71 -31 -96 -81 -68 -240 -116 -308 -93 -63 20 -81 49 -81 128 0 74 13
117 39 123 9 3 98 5 199 6 l182 1 0 -69z"/>
<path d="M3424 1076 c-70 -26 -144 -67 -194 -108 -19 -15 -38 -28 -41 -28 -4
0 -11 29 -14 65 l-7 66 -102 -3 -101 -3 -3 -497 -2 -498 22 -5 c13 -3 68 -5
123 -3 l100 3 3 352 2 352 37 23 c118 73 161 90 229 92 71 1 96 -14 114 -70 8
-23 12 -151 12 -377 0 -188 2 -350 5 -359 4 -16 18 -18 112 -18 75 0 112 4
119 13 6 7 10 132 11 342 0 182 0 335 1 342 0 11 95 75 159 106 84 42 188 27
214 -30 8 -20 13 -134 17 -398 l5 -370 120 0 120 0 3 390 c3 405 -1 466 -39
530 -95 160 -365 153 -580 -16 l-35 -28 -19 32 c-29 51 -67 87 -114 108 -63
28 -195 26 -277 -5z"/>
<path d="M5029 1095 c-3 -2 -63 -11 -134 -19 -71 -9 -133 -20 -139 -26 -7 -7
-6 -28 2 -68 7 -32 12 -68 12 -80 0 -22 7 -26 45 -24 11 1 119 5 240 8 199 6
224 5 258 -11 48 -23 58 -43 60 -118 l2 -62 -245 -5 c-233 -5 -247 -6 -290
-29 -59 -31 -87 -57 -113 -106 -19 -35 -22 -57 -22 -170 0 -113 3 -136 22
-175 46 -96 132 -153 248 -164 144 -14 278 28 384 121 47 41 51 43 51 21 1
-13 7 -45 14 -73 l13 -50 94 0 94 0 0 410 0 410 -24 53 c-32 71 -88 117 -172
142 -54 16 -96 20 -231 20 -91 0 -167 -2 -169 -5z m351 -654 c0 -65 -2 -71
-31 -96 -81 -67 -231 -112 -310 -93 -61 16 -79 46 -79 135 0 65 3 77 25 98 24
25 26 25 210 25 l185 0 0 -69z"/>
<path d="M6420 1083 c-67 -22 -168 -71 -232 -113 -63 -42 -68 -40 -68 33 0 66
-4 68 -116 65 l-99 -3 0 -500 0 -500 120 0 120 0 5 350 5 350 60 32 c133 72
254 105 307 84 15 -5 35 -22 45 -38 16 -24 18 -63 23 -403 l5 -375 120 0 120
0 3 410 c3 372 1 415 -15 464 -23 68 -77 123 -142 145 -61 20 -198 19 -261 -1z"/>
<path d="M2432 568 l3 -503 120 0 120 0 3 503 2 502 -125 0 -125 0 2 -502z"/>
</g>
</svg>
