<svg width="18" height="18" viewBox="0 0 18 18" fill="none" xmlns="http://www.w3.org/2000/svg">
<path d="M11.5481 14.3268C11.5896 14.3655 11.6228 14.412 11.6459 14.4638C11.6689 14.5155 11.6813 14.5714 11.6823 14.6281C11.6833 14.6847 11.6729 14.741 11.6517 14.7935C11.6305 14.846 11.5989 14.8937 11.5588 14.9338C11.5188 14.9739 11.4711 15.0055 11.4185 15.0267C11.366 15.0479 11.3097 15.0583 11.2531 15.0573C11.1964 15.0563 11.1406 15.0439 11.0888 15.0209C11.0371 14.9978 10.9905 14.9645 10.9519 14.9231L5.32688 9.2981C5.24787 9.219 5.2035 9.11177 5.2035 8.99997C5.2035 8.88818 5.24787 8.78095 5.32688 8.70185L10.9519 3.07685C11.0319 3.00233 11.1376 2.96176 11.2469 2.96369C11.3562 2.96562 11.4605 3.00989 11.5378 3.08719C11.6151 3.16448 11.6594 3.26876 11.6613 3.37806C11.6632 3.48735 11.6226 3.59313 11.5481 3.6731L6.22196 8.99997L11.5481 14.3268Z" fill="#1FAFBC" stroke="#1FAFBC" stroke-width="0.5"/>
</svg>
