<svg width="24" height="24" viewBox="0 0 24 24" fill="none" xmlns="http://www.w3.org/2000/svg">
<path d="M9.96995 18.781L3.21996 12.031C3.15022 11.9614 3.0949 11.8787 3.05716 11.7876C3.01942 11.6966 2.99999 11.599 2.99999 11.5004C2.99999 11.4019 3.01942 11.3043 3.05716 11.2132C3.0949 11.1222 3.15022 11.0394 3.21996 10.9698L9.96995 4.21979C10.1107 4.07906 10.3016 4 10.5006 4C10.6996 4 10.8905 4.07906 11.0312 4.21979C11.1719 4.36052 11.251 4.55139 11.251 4.75042C11.251 4.94944 11.1719 5.14031 11.0312 5.28104L5.56089 10.7504L20.2506 10.7504C20.4495 10.7504 20.6403 10.8294 20.7809 10.9701C20.9216 11.1107 21.0006 11.3015 21.0006 11.5004C21.0006 11.6993 20.9216 11.8901 20.7809 12.0307C20.6403 12.1714 20.4495 12.2504 20.2506 12.2504L5.56089 12.2504L11.0312 17.7198C11.1719 17.8605 11.251 18.0514 11.251 18.2504C11.251 18.4494 11.1719 18.6403 11.0312 18.781C10.8905 18.9218 10.6996 19.0008 10.5006 19.0008C10.3016 19.0008 10.1107 18.9218 9.96995 18.781Z" fill="white"/>
</svg>
