<svg width="12" height="66" viewBox="0 0 12 66" fill="none" xmlns="http://www.w3.org/2000/svg">
<line x1="6.5" y1="2.18557e-08" x2="6.5" y2="60" stroke="white"/>
<path d="M10.9156 55.5493L6.72225 59.9045C6.66328 59.9656 6.58334 60 6.5 60C6.41666 60 6.33672 59.9656 6.27775 59.9045L2.08441 55.5493C2.02886 55.4874 1.99861 55.4055 2.00005 55.3209C2.00149 55.2363 2.03449 55.1555 2.09212 55.0957C2.14974 55.0358 2.22748 55.0015 2.30895 55.0001C2.39043 54.9986 2.46928 55.03 2.5289 55.0877L6.5 59.2115L10.4711 55.0877C10.5307 55.03 10.6096 54.9986 10.691 55.0001C10.7725 55.0015 10.8503 55.0358 10.9079 55.0957C10.9655 55.1555 10.9985 55.2363 11 55.3209C11.0014 55.4055 10.9711 55.4874 10.9156 55.5493Z" fill="white" stroke="white" stroke-width="0.5"/>
</svg>
