<svg width="22" height="22" viewBox="0 0 22 22" fill="none" xmlns="http://www.w3.org/2000/svg">
<path d="M12.2184 0.780873C12.1662 0.817049 12.1019 0.909497 12.0697 0.981849C12.0215 1.09841 12.0215 1.13861 12.0697 1.25518C12.1541 1.45615 12.2707 1.52046 12.5601 1.52046C12.6968 1.52046 12.9942 1.54056 13.2233 1.56066C17.0419 1.95055 20.0645 4.97322 20.4544 8.79176C20.4745 9.02087 20.4946 9.31832 20.4946 9.45498C20.4946 9.74439 20.5589 9.86095 20.7599 9.94536C20.8765 9.9936 20.9167 9.9936 21.0332 9.94536C21.3106 9.8288 21.3467 9.63988 21.2583 8.75157C20.989 6.02232 19.5179 3.61865 17.1906 2.10731C16.7042 1.78977 15.7837 1.35164 15.2009 1.16273C14.1197 0.80901 12.4797 0.599995 12.2184 0.780873Z" fill="#1FAFBC"/>
<path d="M12.2271 3.20382C12.006 3.34049 11.9738 3.64597 12.1668 3.81479C12.2713 3.90724 12.3275 3.92332 12.7215 3.94743C15.6436 4.13233 17.8825 6.3712 18.0674 9.29339C18.0915 9.69132 18.1076 9.74357 18.2001 9.8521C18.389 10.0611 18.7346 9.98876 18.8472 9.71945C18.9557 9.45417 18.799 8.32468 18.5417 7.52882C17.9508 5.712 16.4114 4.14439 14.6026 3.51735C14.0921 3.34049 13.5857 3.22392 13.0913 3.17167C12.5366 3.11137 12.3758 3.11539 12.2271 3.20382Z" fill="#1FAFBC"/>
<path d="M3.38802 3.68277C3.27547 3.72296 3.11067 3.81139 3.02224 3.88374C2.67656 4.15707 1.76011 5.14989 1.52698 5.5036C0.71906 6.72554 0.510046 8.18864 0.944153 9.56733C1.14111 10.1904 1.94501 11.6776 2.72078 12.8553C3.60507 14.1978 4.47328 15.2509 5.69924 16.4769C6.90509 17.6787 7.80144 18.4183 9.09974 19.2865C10.0443 19.9136 11.2864 20.625 11.9174 20.8903C13.1554 21.4169 14.4819 21.4169 15.7239 20.8943C16.1017 20.7335 16.4755 20.5044 16.8574 20.1989C17.2995 19.8412 18.1718 18.9408 18.2642 18.7439C18.3728 18.5148 18.3888 18.1008 18.3044 17.8315C18.2401 17.6345 18.1155 17.4978 16.4796 15.8579C14.5221 13.8923 14.51 13.8843 14.0277 13.8843C13.5775 13.8843 13.4649 13.9607 12.5565 14.861C12.1144 15.2992 11.6883 15.6931 11.6119 15.7333C11.5235 15.7775 11.3868 15.8056 11.2421 15.8056C11.0251 15.8016 10.9849 15.7855 10.599 15.5283C10.3699 15.3795 9.99609 15.1102 9.76296 14.9294C9.38513 14.64 9.32082 14.6038 9.16807 14.6038C9.02337 14.6038 8.97514 14.6239 8.89475 14.7163C8.7822 14.849 8.76612 15.0821 8.85857 15.2107C8.97514 15.3795 10.1971 16.2638 10.591 16.4648C10.8402 16.5934 11.2341 16.6497 11.5114 16.5975C11.9898 16.509 12.1264 16.4126 13.0147 15.5283C13.5172 15.0339 13.883 14.7003 13.9473 14.6842C14.0156 14.6681 14.1 14.6802 14.1683 14.7163C14.2327 14.7525 15.0205 15.5162 15.9249 16.4206C17.5367 18.0405 17.5608 18.0646 17.5608 18.2254C17.5608 18.3821 17.5367 18.4103 16.9056 19.0293C16.2223 19.7045 15.9811 19.8854 15.4827 20.1186C14.9401 20.3678 14.4859 20.4642 13.8428 20.4642C12.9585 20.4683 12.5364 20.3396 11.4512 19.7568C8.49682 18.1611 6.1856 16.1835 4.1879 13.5386C3.18302 12.2082 2.00932 10.2225 1.72796 9.37842C1.43855 8.50216 1.46669 7.52944 1.81639 6.66524C2.04952 6.09447 2.24246 5.82517 2.92577 5.12577C3.29155 4.75598 3.62919 4.44245 3.68144 4.4304C3.73369 4.41432 3.82614 4.42637 3.88644 4.45049C3.95075 4.47863 4.74661 5.24636 5.65502 6.15879C7.26685 7.77061 7.31106 7.81884 7.31106 7.97159C7.31106 8.12031 7.27488 8.16452 6.49108 8.95235C5.76757 9.67988 5.651 9.81654 5.53846 10.0577C5.43797 10.2748 5.40179 10.4074 5.38973 10.6446C5.3616 11.1068 5.44199 11.3158 5.87208 11.9549C6.36246 12.6865 6.45088 12.7749 6.66392 12.7749C6.80058 12.7749 6.86087 12.7508 6.95332 12.6583C7.1543 12.4574 7.12214 12.3448 6.70411 11.7499C6.27403 11.143 6.18962 10.9701 6.1856 10.733C6.1856 10.4235 6.27403 10.3029 7.14626 9.42263C8.06673 8.4901 8.11496 8.41373 8.11496 7.95149C8.11496 7.49728 8.06271 7.43297 6.15746 5.53576C4.97572 4.35402 4.38084 3.79129 4.25623 3.731C4.01104 3.60639 3.6533 3.5863 3.38802 3.68277Z" fill="#1FAFBC"/>
<path d="M12.2671 5.59593C12.0138 5.70848 11.9616 6.0421 12.1666 6.227C12.263 6.31543 12.3354 6.33552 12.6168 6.35964C13.7583 6.46013 14.6587 7.01884 15.2254 7.9795C15.4465 8.35734 15.5832 8.79546 15.6394 9.30594C15.6796 9.67574 15.6997 9.75211 15.7922 9.8526C15.8726 9.94103 15.9288 9.96916 16.0454 9.96916C16.3951 9.96916 16.5036 9.75613 16.4393 9.18536C16.2826 7.77853 15.4626 6.60081 14.2045 5.97377C13.5613 5.65221 12.5725 5.45927 12.2671 5.59593Z" fill="#1FAFBC"/>
<path d="M12.1868 8.05065C12.0863 8.11898 12.018 8.31996 12.0461 8.46064C12.0783 8.62142 12.2431 8.74603 12.4681 8.77416C12.9023 8.83044 13.1836 9.1118 13.2399 9.54591C13.2841 9.87551 13.4811 10.0283 13.7705 9.95188C13.9554 9.90365 14.0358 9.76296 14.0277 9.50571C14.0157 8.92289 13.666 8.39633 13.1072 8.123C12.8299 7.98634 12.3275 7.94614 12.1868 8.05065Z" fill="#1FAFBC"/>
<path d="M7.58844 13.4895C7.37139 13.6824 7.43168 14.012 7.70099 14.1245C7.80951 14.1728 7.8698 14.1768 7.97833 14.1406C8.2597 14.0482 8.33205 13.7065 8.11901 13.4935C7.95823 13.3367 7.76128 13.3327 7.58844 13.4895Z" fill="#1FAFBC"/>
</svg>
