<svg width="14" height="16" viewBox="0 0 14 16" fill="none" xmlns="http://www.w3.org/2000/svg">
<path d="M11.375 10.5312C10.9989 10.5315 10.6275 10.6155 10.2879 10.7773C9.94832 10.939 9.64906 11.1745 9.41188 11.4664L5.76758 9.125C5.94147 8.77547 6.03198 8.39039 6.03198 8C6.03198 7.6096 5.94147 7.22452 5.76758 6.875L9.41188 4.53359C9.8204 5.03364 10.4049 5.35829 11.0453 5.44086C11.6857 5.52343 12.3334 5.35764 12.8554 4.97755C13.3774 4.59746 13.734 4.03193 13.8521 3.3971C13.9701 2.76227 13.8406 2.10634 13.4901 1.56402C13.1396 1.02171 12.5948 0.634177 11.9675 0.481028C11.3402 0.327879 10.6781 0.420735 10.1172 0.740526C9.5562 1.06032 9.13898 1.58276 8.95119 2.20057C8.76341 2.81837 8.81931 3.48462 9.10742 4.0625L5.46313 6.4039C5.13342 5.99807 4.68611 5.7043 4.18269 5.56296C3.67926 5.42163 3.14442 5.43967 2.65167 5.61461C2.15891 5.78954 1.73242 6.11279 1.43081 6.53992C1.1292 6.96705 0.967262 7.47711 0.967262 8C0.967262 8.52288 1.1292 9.03294 1.43081 9.46007C1.73242 9.8872 2.15891 10.2104 2.65167 10.3854C3.14442 10.5603 3.67926 10.5784 4.18269 10.437C4.68611 10.2957 5.13342 10.0019 5.46313 9.59609L9.10742 11.9375C8.86281 12.4305 8.78556 12.9899 8.88737 13.5307C8.98919 14.0716 9.26452 14.5646 9.67166 14.9349C10.0788 15.3053 10.5955 15.5329 11.1436 15.5832C11.6917 15.6334 12.2413 15.5037 12.709 15.2137C13.1767 14.9236 13.5372 14.489 13.7357 13.9756C13.9343 13.4623 13.9601 12.8983 13.8093 12.369C13.6585 11.8396 13.3393 11.3739 12.9 11.0423C12.4608 10.7107 11.9254 10.5313 11.375 10.5312ZM11.375 0.968746C11.7644 0.968746 12.145 1.08421 12.4688 1.30054C12.7925 1.51687 13.0449 1.82435 13.1939 2.18409C13.3429 2.54383 13.3819 2.93968 13.3059 3.32158C13.23 3.70348 13.0425 4.05428 12.7671 4.32961C12.4918 4.60495 12.141 4.79245 11.7591 4.86842C11.3772 4.94438 10.9813 4.90539 10.6216 4.75638C10.2619 4.60737 9.95437 4.35503 9.73805 4.03127C9.52172 3.70752 9.40625 3.32688 9.40625 2.9375C9.40625 2.41535 9.61367 1.91459 9.98288 1.54538C10.3521 1.17617 10.8529 0.968746 11.375 0.968746ZM3.5 9.96875C3.11062 9.96875 2.72998 9.85328 2.40622 9.63695C2.08246 9.42062 1.83012 9.11315 1.68111 8.7534C1.5321 8.39366 1.49312 7.99781 1.56908 7.61591C1.64505 7.23401 1.83255 6.88321 2.10789 6.60788C2.38322 6.33254 2.73402 6.14504 3.11592 6.06907C3.49782 5.99311 3.89367 6.0321 4.25341 6.18111C4.61315 6.33012 4.92063 6.58246 5.13696 6.90622C5.35329 7.22998 5.46875 7.61061 5.46875 8C5.46875 8.52214 5.26133 9.0229 4.89212 9.39211C4.52291 9.76132 4.02215 9.96875 3.5 9.96875ZM11.375 15.0312C10.9856 15.0312 10.605 14.9158 10.2812 14.6995C9.95746 14.4831 9.70512 14.1756 9.55611 13.8159C9.4071 13.4562 9.36812 13.0603 9.44408 12.6784C9.52004 12.2965 9.70755 11.9457 9.98288 11.6704C10.2582 11.395 10.609 11.2075 10.9909 11.1316C11.3728 11.0556 11.7687 11.0946 12.1284 11.2436C12.4882 11.3926 12.7956 11.645 13.012 11.9687C13.2283 12.2925 13.3438 12.6731 13.3438 13.0625C13.3438 13.5846 13.1363 14.0854 12.7671 14.4546C12.3979 14.8238 11.8971 15.0312 11.375 15.0312Z" fill="#C6C6C6"/>
</svg>
