<svg width="10" height="11" viewBox="0 0 10 11" fill="none" xmlns="http://www.w3.org/2000/svg">
<path d="M9.1875 5.50001C9.18783 5.63794 9.15247 5.77362 9.08484 5.89384C9.01721 6.01406 8.91962 6.11473 8.80156 6.18606L1.485 10.6619C1.36165 10.7375 1.22036 10.7787 1.07574 10.7814C0.931123 10.7841 0.788411 10.7481 0.662344 10.6772C0.537478 10.6073 0.433461 10.5055 0.360989 10.3822C0.288518 10.2588 0.250209 10.1184 0.25 9.97536V1.02466C0.250209 0.881599 0.288518 0.741178 0.360989 0.617835C0.433461 0.494491 0.537478 0.392676 0.662344 0.322861C0.788411 0.251944 0.931123 0.215967 1.07574 0.218645C1.22036 0.221323 1.36165 0.26256 1.485 0.338095L8.80156 4.81395C8.91962 4.88529 9.01721 4.98596 9.08484 5.10618C9.15247 5.2264 9.18783 5.36207 9.1875 5.50001Z" fill="white"/>
</svg>
