<svg width="58" height="58" viewBox="0 0 58 58" fill="none" xmlns="http://www.w3.org/2000/svg">
<rect x="10" y="10" width="38" height="38" rx="19" fill="#1FAFBC"/>
<rect x="5.5" y="5.5" width="47" height="47" rx="23.5" stroke="#1B9CA7"/>
<rect x="0.5" y="0.5" width="57" height="57" rx="28.5" stroke="#08585F"/>
<path d="M34.1875 29.5C34.1878 29.6379 34.1525 29.7736 34.0848 29.8938C34.0172 30.0141 33.9196 30.1147 33.8016 30.1861L26.485 34.6619C26.3616 34.7375 26.2204 34.7787 26.0757 34.7814C25.9311 34.7841 25.7884 34.7481 25.6623 34.6772C25.5375 34.6073 25.4335 34.5055 25.361 34.3822C25.2885 34.2588 25.2502 34.1184 25.25 33.9754V25.0247C25.2502 24.8816 25.2885 24.7412 25.361 24.6178C25.4335 24.4945 25.5375 24.3927 25.6623 24.3229C25.7884 24.2519 25.9311 24.216 26.0757 24.2186C26.2204 24.2213 26.3616 24.2626 26.485 24.3381L33.8016 28.814C33.9196 28.8853 34.0172 28.986 34.0848 29.1062C34.1525 29.2264 34.1878 29.3621 34.1875 29.5Z" fill="white"/>
</svg>
